<svg id="emdbfioilvk1" xmlns="http://www.w3.org/2000/svg" xmlns:xlink="http://www.w3.org/1999/xlink" viewBox="0 400 1200 400" shape-rendering="geometricPrecision" text-rendering="geometricPrecision"><style><![CDATA[#emdbfioilvk2_to {animation: emdbfioilvk2_to__to 5000ms linear 1 normal forwards}@keyframes emdbfioilvk2_to__to { 0% {transform: translate(-60.870998px,861.309963px);animation-timing-function: cubic-bezier(0.500000,0.005000,0.495000,0.995000)} 60% {transform: translate(188.089142px,612.349823px)} 100% {transform: translate(188.089142px,612.349823px)} }#emdbfioilvk2 {animation: emdbfioilvk2_c_o 5000ms linear 1 normal forwards}@keyframes emdbfioilvk2_c_o { 0% {opacity: 0} 10% {opacity: 1} 100% {opacity: 1} }#emdbfioilvk3_to {animation: emdbfioilvk3_to__to 5000ms linear 1 normal forwards}@keyframes emdbfioilvk3_to__to { 0% {transform: translate(370.528663px,606.641937px)} 60% {transform: translate(370.528663px,606.641937px)} 86% {transform: translate(193.409129px,606.641937px)} 100% {transform: translate(193.409129px,606.641937px)} }#emdbfioilvk4_to {animation: emdbfioilvk4_to__to 5000ms linear 1 normal forwards}@keyframes emdbfioilvk4_to__to { 0% {transform: translate(414.143279px,626.119812px)} 60% {transform: translate(414.143279px,626.119812px)} 86% {transform: translate(237.023745px,626.119812px)} 100% {transform: translate(237.023745px,626.119812px)} }#emdbfioilvk4_tr {animation: emdbfioilvk4_tr__tr 5000ms linear 1 normal forwards}@keyframes emdbfioilvk4_tr__tr { 0% {transform: rotate(15deg)} 10% {transform: rotate(0deg)} 20% {transform: rotate(-15deg)} 30% {transform: rotate(0deg)} 40% {transform: rotate(15deg)} 50% {transform: rotate(0deg)} 60% {transform: rotate(-15deg)} 100% {transform: rotate(-15deg)} }#emdbfioilvk5_to {animation: emdbfioilvk5_to__to 5000ms linear 1 normal forwards}@keyframes emdbfioilvk5_to__to { 0% {transform: translate(378.949592px,661.332214px)} 60% {transform: translate(378.949592px,661.332214px)} 86% {transform: translate(201.830058px,661.332214px)} 100% {transform: translate(201.830058px,661.332214px)} }#emdbfioilvk5_tr {animation: emdbfioilvk5_tr__tr 5000ms linear 1 normal forwards}@keyframes emdbfioilvk5_tr__tr { 0% {transform: rotate(15deg)} 10% {transform: rotate(0deg)} 20% {transform: rotate(-15deg)} 30% {transform: rotate(0deg)} 40% {transform: rotate(15deg)} 50% {transform: rotate(0deg)} 60% {transform: rotate(-15deg)} 100% {transform: rotate(-15deg)} }#emdbfioilvk6_to {animation: emdbfioilvk6_to__to 5000ms linear 1 normal forwards}@keyframes emdbfioilvk6_to__to { 0% {transform: translate(351.384307px,563.334930px)} 60% {transform: translate(351.384307px,563.334930px)} 86% {transform: translate(174.264773px,563.334930px)} 100% {transform: translate(174.264773px,563.334930px)} }#emdbfioilvk6_tr {animation: emdbfioilvk6_tr__tr 5000ms linear 1 normal forwards}@keyframes emdbfioilvk6_tr__tr { 0% {transform: rotate(15deg)} 10% {transform: rotate(0deg)} 20% {transform: rotate(-15deg)} 30% {transform: rotate(0deg)} 40% {transform: rotate(15deg)} 50% {transform: rotate(0deg)} 60% {transform: rotate(-15deg)} 100% {transform: rotate(-15deg)} }#emdbfioilvk7_to {animation: emdbfioilvk7_to__to 5000ms linear 1 normal forwards}@keyframes emdbfioilvk7_to__to { 0% {transform: translate(316.246642px,598.544708px)} 60% {transform: translate(316.246642px,598.544708px)} 86% {transform: translate(139.127108px,598.544708px)} 100% {transform: translate(139.127108px,598.544708px)} }#emdbfioilvk7_tr {animation: emdbfioilvk7_tr__tr 5000ms linear 1 normal forwards}@keyframes emdbfioilvk7_tr__tr { 0% {transform: rotate(15deg)} 10% {transform: rotate(0deg)} 20% {transform: rotate(-15deg)} 30% {transform: rotate(0deg)} 40% {transform: rotate(15deg)} 50% {transform: rotate(0deg)} 60% {transform: rotate(-15deg)} 100% {transform: rotate(-15deg)} }#emdbfioilvk8_to {animation: emdbfioilvk8_to__to 5000ms linear 1 normal forwards}@keyframes emdbfioilvk8_to__to { 0% {transform: translate(353.515975px,605.540131px)} 60% {transform: translate(353.515975px,605.540131px)} 86% {transform: translate(176.396441px,605.540131px)} 100% {transform: translate(176.396441px,605.540131px)} }#emdbfioilvk9_to {animation: emdbfioilvk9_to__to 5000ms linear 1 normal forwards}@keyframes emdbfioilvk9_to__to { 0% {transform: translate(371.647933px,623.679199px)} 60% {transform: translate(371.647933px,623.679199px)} 86% {transform: translate(194.528399px,623.679199px)} 100% {transform: translate(194.528399px,623.679199px)} }#emdbfioilvk11_to {animation: emdbfioilvk11_to__to 5000ms linear 1 normal forwards}@keyframes emdbfioilvk11_to__to { 0% {transform: translate(526.987998px,627.128357px)} 60% {transform: translate(526.987998px,627.128357px)} 86% {transform: translate(349.868464px,627.128357px)} 100% {transform: translate(349.868464px,627.128357px)} }#emdbfioilvk12_to {animation: emdbfioilvk12_to__to 5000ms linear 1 normal forwards}@keyframes emdbfioilvk12_to__to { 0% {transform: translate(656.768012px,607.434967px)} 60% {transform: translate(656.768012px,607.434967px)} 86% {transform: translate(479.648478px,607.434967px)} 100% {transform: translate(479.648478px,607.434967px)} }#emdbfioilvk13_to {animation: emdbfioilvk13_to__to 5000ms linear 1 normal forwards}@keyframes emdbfioilvk13_to__to { 0% {transform: translate(752.693015px,595.880005px)} 60% {transform: translate(752.693015px,595.880005px)} 86% {transform: translate(575.573481px,595.880005px)} 100% {transform: translate(575.573481px,595.880005px)} }#emdbfioilvk14_to {animation: emdbfioilvk14_to__to 5000ms linear 1 normal forwards}@keyframes emdbfioilvk14_to__to { 0% {transform: translate(811.687522px,586.159714px)} 60% {transform: translate(811.687522px,586.159714px)} 86% {transform: translate(634.567988px,586.159714px)} 100% {transform: translate(634.567988px,586.159714px)} }#emdbfioilvk15_to {animation: emdbfioilvk15_to__to 5000ms linear 1 normal forwards}@keyframes emdbfioilvk15_to__to { 0% {transform: translate(868.203025px,595.880005px)} 60% {transform: translate(868.203025px,595.880005px)} 86% {transform: translate(691.083491px,595.880005px)} 100% {transform: translate(691.083491px,595.880005px)} }#emdbfioilvk17 {animation: emdbfioilvk17_c_o 5000ms linear 1 normal forwards}@keyframes emdbfioilvk17_c_o { 0% {opacity: 0} 60% {opacity: 0} 86% {opacity: 0} 100% {opacity: 1} }]]></style><g id="emdbfioilvk2_to" transform="translate(-60.870998,861.309963)"><g id="emdbfioilvk2" transform="translate(-188.089142,-612.349823)" opacity="0"><g id="emdbfioilvk3_to" transform="translate(370.528663,606.641937)"><path id="emdbfioilvk3" d="M231.360000,648.250000L222.360000,639.250000C232.405704,628.080312,236.439220,612.746993,233.190000,598.080000L237,594.280000L237,594.280000C237.061386,594.231914,237.118286,594.178362,237.170000,594.120000C240.260000,591.040000,240.360000,585.700000,238,580.040000L241,577.040000C242.184335,575.857451,242.647824,574.132895,242.215874,572.515956C241.783924,570.899017,240.522160,569.635346,238.905874,569.200956C237.289589,568.766566,235.564335,569.227451,234.380000,570.410000L232.950000,571.840000C232.260000,571.010000,231.520000,570.210000,230.740000,569.420000C229.960000,568.630000,229.140000,567.890000,228.320000,567.200000L229.740000,565.770000C231.568063,563.941937,231.568063,560.978063,229.740000,559.150000C227.911937,557.321937,224.948063,557.321937,223.120000,559.150000L220.120000,562.150000C214.470000,559.790000,209.120000,559.900000,206.040000,562.980000C205.991914,563.041386,205.938362,563.098286,205.880000,563.150000L205.880000,563.150000L202.070000,566.950000C187.403007,563.700780,172.069688,567.734296,160.900000,577.780000L151.900000,568.780000C150.621461,567.501461,148.548539,567.501461,147.270000,568.780000C145.991461,570.058539,145.991461,572.131461,147.270000,573.410000L156.270000,582.410000C140.610000,600.470000,140.620000,627.040000,156.840000,643.260000C173.060000,659.480000,199.640000,659.490000,217.690000,643.840000L226.690000,652.840000C227.971301,654.121301,230.048699,654.121301,231.330000,652.840000C232.611301,651.558699,232.611301,649.481301,231.330000,648.200000Z" transform="translate(-193.490646,-606.641937)" fill="rgb(0,0,0)" stroke="none" stroke-width="1"/></g><g id="emdbfioilvk4_to" transform="translate(414.143279,626.119812)"><g id="emdbfioilvk4_tr" transform="rotate(15)"><path id="emdbfioilvk4" d="M231.490000,631.600000C229.998499,631.602352,228.510699,631.451561,227.050000,631.150000C225.337917,630.782731,224.247731,629.097083,224.615000,627.385000C224.982269,625.672917,226.667917,624.582731,228.380000,624.950000C236.140000,626.620000,244.770000,621.150000,244.860000,621.090000C246.319581,620.215970,248.208846,620.649927,249.140731,622.073267C250.072616,623.496607,249.714807,625.401761,248.330000,626.390000C248,626.640000,240.260000,631.600000,231.490000,631.600000Z" transform="translate(-237.105263,-626.119812)" fill="rgb(0,0,0)" stroke="none" stroke-width="1"/></g></g><g id="emdbfioilvk5_to" transform="translate(378.949592,661.332214)"><g id="emdbfioilvk5_tr" transform="rotate(15)"><path id="emdbfioilvk5" d="M199.560000,673.940000C198.398151,673.937688,197.330660,673.299961,196.777961,672.277990C196.225263,671.256020,196.275927,670.013576,196.910000,669.040000L196.910000,669.040000C196.970000,668.950000,202.450000,660.390000,200.770000,652.560000C200.402731,650.847917,201.492917,649.162269,203.205000,648.795000C204.917083,648.427731,206.602731,649.517917,206.970000,651.230000C209.210000,661.680000,202.500000,672.070000,202.210000,672.510000C201.623889,673.402564,200.627800,673.940076,199.560000,673.940000Z" transform="translate(-201.911575,-661.332214)" fill="rgb(0,0,0)" stroke="none" stroke-width="1"/></g></g><g id="emdbfioilvk6_to" transform="translate(351.384307,563.334930)"><g id="emdbfioilvk6_tr" transform="rotate(15)"><path id="emdbfioilvk6" d="M172.400000,575.910000C170.907564,575.905040,169.620721,574.859740,169.310000,573.400000C167.070000,562.960000,173.780000,552.560000,174.060000,552.130000C175.035626,550.715643,176.960437,550.336026,178.400007,551.274051C179.839576,552.212076,180.269773,554.126217,179.370000,555.590000L179.370000,555.590000C179.310000,555.680000,173.830000,564.240000,175.500000,572.080000C175.677931,572.900979,175.521651,573.759017,175.065688,574.464540C174.609725,575.170064,173.891609,575.665001,173.070000,575.840000C172.849936,575.888001,172.625233,575.911477,172.400000,575.910000Z" transform="translate(-174.346291,-563.334930)" fill="rgb(0,0,0)" stroke="none" stroke-width="1"/></g></g><g id="emdbfioilvk7_to" transform="translate(316.246642,598.544708)"><g id="emdbfioilvk7_tr" transform="rotate(15)"><path id="emdbfioilvk7" d="M129.690000,604.060000C128.288865,604.060152,127.053829,603.140444,126.652485,601.798020C126.251142,600.455596,126.778704,599.008925,127.950000,598.240000C128.390000,597.950000,138.770000,591.240000,149.230000,593.490000C150.387432,593.675795,151.347849,594.485166,151.727094,595.594373C152.106340,596.703580,151.842499,597.931534,151.041104,598.787065C150.239709,599.642597,149.031597,599.986032,147.900000,599.680000C140.060000,598.010000,131.500000,603.490000,131.410000,603.540000C130.900066,603.878254,130.301921,604.059088,129.690000,604.060000Z" transform="translate(-139.208626,-598.544708)" fill="rgb(0,0,0)" stroke="none" stroke-width="1"/></g></g><g id="emdbfioilvk8_to" transform="translate(353.515975,605.540131)"><path id="emdbfioilvk8" d="M210.800000,581.150000C204.360000,574.830000,181.090000,555.760000,156.600000,581.970000C131.190000,609.180000,144,633.970000,149.940000,641.600000C150.389743,642.165818,151.059242,642.513234,151.780807,642.555230C152.502371,642.597226,153.207654,642.329823,153.720000,641.820000L210.800000,584.730000C211.280062,584.258106,211.550455,583.613159,211.550455,582.940000C211.550455,582.266841,211.280062,581.621894,210.800000,581.150000ZM159.160000,590C161.973568,587.184061,166.206577,586.340673,169.884551,587.863233C173.562524,589.385792,175.960860,592.974337,175.960860,596.955000C175.960860,600.935663,173.562524,604.524208,169.884551,606.046767C166.206577,607.569327,161.973568,606.725939,159.160000,603.910000C155.321147,600.067912,155.321147,593.842088,159.160000,590ZM152.210000,624.780000C150.331731,622.904659,149.768608,620.082284,150.783371,617.629723C151.798135,615.177162,154.190796,613.577762,156.845000,613.577762C159.499204,613.577762,161.891865,615.177162,162.906629,617.629723C163.921392,620.082284,163.358269,622.904659,161.480000,624.780000C160.246056,626.005189,158.575572,626.689432,156.836707,626.681929C155.097842,626.674426,153.433325,625.975792,152.210000,624.740000ZM184.330000,592.650000C181.612821,589.910448,181.624908,585.488737,184.357022,582.764081C187.089136,580.039424,191.510864,580.039424,194.242978,582.764081C196.975092,585.488737,196.987179,589.910448,194.270000,592.650000C192.950309,593.969913,191.158135,594.708123,189.291668,594.700612C187.425200,594.693101,185.639026,593.940492,184.330000,592.610000Z" transform="translate(-176.477959,-605.540131)" fill="rgb(222,42,66)" stroke="none" stroke-width="1"/></g><g id="emdbfioilvk9_to" transform="translate(371.647933,623.679199)"><path id="emdbfioilvk9" d="M219,589.350000C218.526766,588.872439,217.882321,588.603781,217.210000,588.603781C216.537679,588.603781,215.893234,588.872439,215.420000,589.350000L158.330000,646.440000C157.820177,646.952346,157.552774,647.657629,157.594770,648.379193C157.636766,649.100758,157.984182,649.770257,158.550000,650.220000C166.140000,656.160000,190.970000,668.970000,218.180000,643.560000C244.390000,619.060000,225.320000,595.790000,219,589.350000ZM223.080000,606.850000C225.491497,609.260761,226.213204,612.886856,224.908551,616.037247C223.603898,619.187638,220.529851,621.241820,217.120000,621.241820C213.710149,621.241820,210.636102,619.187638,209.331449,616.037247C208.026796,612.886856,208.748503,609.260761,211.160000,606.850000C214.451911,603.559094,219.788089,603.559094,223.080000,606.850000ZM202.210000,618.440000C203.683828,619.912534,204.125269,622.127995,203.328412,624.052974C202.531555,625.977952,200.653392,627.233199,198.570000,627.233199C196.486608,627.233199,194.608445,625.977952,193.811588,624.052974C193.014731,622.127995,193.456172,619.912534,194.930000,618.440000C195.894378,617.472712,197.204104,616.929049,198.570000,616.929049C199.935896,616.929049,201.245622,617.472712,202.210000,618.440000ZM175.390000,652.560000C172.574061,649.746432,171.730673,645.513423,173.253233,641.835449C174.775792,638.157476,178.364337,635.759140,182.345000,635.759140C186.325663,635.759140,189.914208,638.157476,191.436767,641.835449C192.959327,645.513423,192.115939,649.746432,189.300000,652.560000C185.457912,656.398853,179.232088,656.398853,175.390000,652.560000ZM200.890000,645.560000C198.334871,643.001060,198.336931,638.855604,200.894601,636.299204C203.452272,633.742804,207.597728,633.742804,210.155399,636.299204C212.713069,638.855604,212.715129,643.001060,210.160000,645.560000C208.936675,646.795792,207.272158,647.494426,205.533293,647.501929C203.794428,647.509432,202.123944,646.825189,200.890000,645.600000Z" transform="translate(-194.609917,-623.679199)" fill="rgb(222,42,66)" stroke="none" stroke-width="1"/></g></g></g><g id="emdbfioilvk10"><g id="emdbfioilvk11_to" transform="translate(526.987998,627.128357)"><path id="emdbfioilvk11" d="M292.080000,548.540000L309.290000,548.540000L309.290000,567.110000C318.463961,553.494885,333.873637,545.410444,350.290000,545.600000C383.810000,545.600000,407.820000,571.190000,407.820000,607.200000C407.820000,643.670000,384.940000,669.270000,351.650000,669.270000C326.960000,669.270000,313.650000,653.410000,309.970000,647.270000L309.970000,708.660000L292.080000,708.660000ZM349.610000,653C372.710000,653,389.470000,634.200000,389.470000,607.240000C389.470000,579.610000,371.810000,561.940000,349.160000,561.940000C324.690000,561.940000,309.290000,582.560000,309.290000,607.240000C309.290000,636.200000,327.410000,653,349.610000,653Z" transform="translate(-349.949982,-627.128357)" fill="rgb(0,0,0)" stroke="none" stroke-width="1"/></g><g id="emdbfioilvk12_to" transform="translate(656.768012,607.434967)"><path id="emdbfioilvk12" d="M480.290000,545.600000C514.950000,545.600000,536.240000,570.510000,536.240000,605.850000C536.240000,606.520000,536.240000,609.020000,536.010000,611.280000L441.560000,611.280000C441.790000,637.560000,459.460000,653.410000,483.920000,653.410000C503.850000,653.410000,514.920000,642.990000,520.610000,635.060000L532.390000,643.670000C525.820000,654.770000,510.390000,669.270000,483.690000,669.270000C447.900000,669.270000,423.220000,644.120000,423.220000,607.880000C423.220000,570.280000,449,545.600000,480.290000,545.600000ZM517.890000,597.920000C516.760000,573.460000,499.770000,561,480.290000,561C461.040000,561,443.830000,575.720000,442.470000,597.920000Z" transform="translate(-479.729996,-607.434967)" fill="rgb(0,0,0)" stroke="none" stroke-width="1"/></g><g id="emdbfioilvk13_to" transform="translate(752.693015,595.880005)"><path id="emdbfioilvk13" d="M560.240000,523.850000L578.140000,523.850000L578.140000,548.540000L604,548.540000L604,563.720000L578.140000,563.720000L578.140000,624.420000C578.140000,646.420000,584.480000,651.600000,599.880000,651.600000C602.150000,651.600000,604.880000,651.370000,604.880000,651.370000L604.880000,667.230000C601.274859,667.688070,597.644122,667.915199,594.010000,667.910000C570.460000,667.910000,560.260000,652.500000,560.260000,626L560.260000,563.720000L546.430000,563.720000L546.430000,548.540000L560.240000,548.540000Z" transform="translate(-575.654999,-595.880005)" fill="rgb(0,0,0)" stroke="none" stroke-width="1"/></g><g id="emdbfioilvk14_to" transform="translate(811.687522,586.159714)"><path id="emdbfioilvk14" d="M634.530000,506C639.546618,505.951488,644.094097,508.942540,646.036351,513.568171C647.978604,518.193801,646.929642,523.534741,643.382191,527.082191C639.834741,530.629642,634.493801,531.678604,629.868171,529.736351C625.242540,527.794097,622.251488,523.246618,622.300000,518.230000C622.297344,514.985589,623.585005,511.873297,625.879151,509.579151C628.173297,507.285005,631.285589,505.997344,634.530000,506ZM625.700000,548.580000L643.590000,548.580000L643.590000,666.320000L625.700000,666.320000Z" transform="translate(-634.649506,-586.159714)" fill="rgb(0,0,0)" stroke="none" stroke-width="1"/></g><g id="emdbfioilvk15_to" transform="translate(868.203025,595.880005)"><path id="emdbfioilvk15" d="M675.750000,523.850000L693.650000,523.850000L693.650000,548.540000L719.470000,548.540000L719.470000,563.720000L693.650000,563.720000L693.650000,624.420000C693.650000,646.420000,699.990000,651.600000,715.390000,651.600000C717.660000,651.600000,720.390000,651.370000,720.390000,651.370000L720.390000,667.230000C716.781480,667.687763,713.147436,667.914890,709.510000,667.910000C685.960000,667.910000,675.760000,652.500000,675.760000,626L675.760000,563.720000L661.940000,563.720000L661.940000,548.540000L675.750000,548.540000Z" transform="translate(-691.165009,-595.880005)" fill="rgb(0,0,0)" stroke="none" stroke-width="1"/></g></g><g id="emdbfioilvk16"><text id="emdbfioilvk17" dx="0" dy="0" font-family="Geomanist" font-size="232.330000" transform="matrix(1 0 0 1 736.74643999999989 671.21000000000004)" opacity="0" fill="rgb(107,107,107)" stroke="none" stroke-width="1"><![CDATA[link]]></text></g></svg>