<svg id="Camada_1" data-name="Camada 1" xmlns="http://www.w3.org/2000/svg" viewBox="0 0 1200 1200"><defs><style>.cls-1{fill:#de2a42;}.cls-2{font-size:232.33px;fill:#6b6b6b;font-family:Geomanist;}</style></defs><path d="M231.36,648.25l-9-9a46.52,46.52,0,0,0,10.83-41.17l3.81-3.8h0a1.29,1.29,0,0,0,.17-.16c3.09-3.08,3.19-8.42.83-14.08l3-3a4.68,4.68,0,1,0-6.62-6.63l-1.43,1.43c-.69-.83-1.43-1.63-2.21-2.42s-1.6-1.53-2.42-2.22l1.42-1.43a4.68,4.68,0,0,0-6.62-6.62l-3,3c-5.65-2.36-11-2.25-14.08.83a1.29,1.29,0,0,1-.16.17h0l-3.81,3.8a46.52,46.52,0,0,0-41.17,10.83l-9-9a3.27,3.27,0,0,0-4.63,4.63l9,9c-15.66,18.06-15.65,44.63.57,60.85s42.8,16.23,60.85.58l9,9a3.28,3.28,0,0,0,4.64-4.64Z"/><path d="M231.49,631.6a21.79,21.79,0,0,1-4.44-.45,3.17,3.17,0,0,1,1.33-6.2c7.76,1.67,16.39-3.8,16.48-3.86a3.17,3.17,0,0,1,3.47,5.3C248,626.64,240.26,631.6,231.49,631.6Z"/><path d="M199.56,673.94a3.17,3.17,0,0,1-2.65-4.9h0c.06-.09,5.54-8.65,3.86-16.48a3.17,3.17,0,0,1,6.2-1.33c2.24,10.45-4.47,20.84-4.76,21.28A3.17,3.17,0,0,1,199.56,673.94Z"/><path d="M172.4,575.91a3.17,3.17,0,0,1-3.09-2.51c-2.24-10.44,4.47-20.84,4.75-21.27a3.17,3.17,0,0,1,5.31,3.46h0c-.06.09-5.54,8.65-3.87,16.49a3.16,3.16,0,0,1-2.43,3.76A3.05,3.05,0,0,1,172.4,575.91Z"/><path d="M129.69,604.06a3.17,3.17,0,0,1-1.74-5.82c.44-.29,10.82-7,21.28-4.75a3.17,3.17,0,1,1-1.33,6.19c-7.84-1.67-16.4,3.81-16.49,3.86A3.12,3.12,0,0,1,129.69,604.06Z"/><path class="cls-1" d="M210.8,581.15c-6.44-6.32-29.71-25.39-54.2.82-25.41,27.21-12.6,52-6.66,59.63a2.54,2.54,0,0,0,3.78.22l57.08-57.09A2.51,2.51,0,0,0,210.8,581.15ZM159.16,590a9.84,9.84,0,1,1,0,13.91A9.84,9.84,0,0,1,159.16,590Zm-6.95,34.78a6.56,6.56,0,1,1,9.27,0A6.55,6.55,0,0,1,152.21,624.74Zm32.12-32.13a7,7,0,1,1,9.94,0A7,7,0,0,1,184.33,592.61Z"/><path class="cls-1" d="M219,589.35a2.52,2.52,0,0,0-3.58,0l-57.09,57.09a2.54,2.54,0,0,0,.22,3.78c7.59,5.94,32.42,18.75,59.63-6.66C244.39,619.06,225.32,595.79,219,589.35Zm4.08,17.5a8.43,8.43,0,1,1-11.92,0A8.43,8.43,0,0,1,223.08,606.85Zm-20.87,11.59a5.15,5.15,0,1,1-7.28,0A5.14,5.14,0,0,1,202.21,618.44Zm-26.82,34.12a9.84,9.84,0,1,1,13.91,0A9.84,9.84,0,0,1,175.39,652.56Zm25.5-7a6.55,6.55,0,1,1,9.27,0A6.55,6.55,0,0,1,200.89,645.6Z"/><path d="M292.08,548.54h17.21v18.57a48.76,48.76,0,0,1,41-21.51c33.52,0,57.53,25.59,57.53,61.6,0,36.47-22.88,62.07-56.17,62.07-24.69,0-38-15.86-41.68-22v61.39H292.08ZM349.61,653c23.1,0,39.86-18.8,39.86-45.76,0-27.63-17.66-45.3-40.31-45.3-24.47,0-39.87,20.62-39.87,45.3C309.29,636.2,327.41,653,349.61,653Z"/><path d="M480.29,545.6c34.66,0,55.95,24.91,55.95,60.25,0,.67,0,3.17-.23,5.43H441.56c.23,26.28,17.9,42.13,42.36,42.13,19.93,0,31-10.42,36.69-18.35l11.78,8.61c-6.57,11.1-22,25.6-48.7,25.6-35.79,0-60.47-25.15-60.47-61.39C423.22,570.28,449,545.6,480.29,545.6Zm37.6,52.32c-1.13-24.46-18.12-36.92-37.6-36.92-19.25,0-36.46,14.72-37.82,36.92Z"/><path d="M560.24,523.85h17.9v24.69H604v15.18H578.14v60.7c0,22,6.34,27.18,21.74,27.18,2.27,0,5-.23,5-.23v15.86a85.27,85.27,0,0,1-10.87.68c-23.55,0-33.75-15.41-33.75-41.91V563.72H546.43V548.54h13.81Z"/><path d="M634.53,506a12.35,12.35,0,1,1-12.23,12.23A12.22,12.22,0,0,1,634.53,506Zm-8.83,42.58h17.89V666.32H625.7Z"/><path d="M675.75,523.85h17.9v24.69h25.82v15.18H693.65v60.7c0,22,6.34,27.18,21.74,27.18,2.27,0,5-.23,5-.23v15.86a85.54,85.54,0,0,1-10.88.68c-23.55,0-33.75-15.41-33.75-41.91V563.72H661.94V548.54h13.81Z"/><text class="cls-2" transform="translate(735.22 671.21)">link</text></svg>