<svg id="Camada_1" data-name="Camada 1" xmlns="http://www.w3.org/2000/svg" viewBox="0 0 1200 1200"><defs><style>.cls-1{fill:#de2a42;}</style></defs><path d="M746.58,721.87,716,691.32c35.31-40,47.73-92.52,36.74-139.63l12.91-12.91,0,0c.2-.19.4-.35.59-.54,10.45-10.45,10.8-28.57,2.81-47.74l10.11-10.11a15.89,15.89,0,0,0-22.47-22.46l-4.83,4.83q-3.51-4.19-7.52-8.2T736.13,447l4.84-4.84a15.89,15.89,0,0,0-22.47-22.46l-10.1,10.1c-19.18-8-37.29-7.64-47.75,2.81-.18.19-.35.4-.53.59l0,0-12.91,12.92c-47.1-11-99.68,1.42-139.62,36.74L477,452.29A11.12,11.12,0,1,0,461.27,468l30.63,30.62c-53.1,61.24-53.07,151.37,2,206.38S639,760.08,700.23,707l30.63,30.63a11.12,11.12,0,0,0,15.72-15.73Z"/><path d="M747,665.41A72.06,72.06,0,0,1,732,663.86a10.74,10.74,0,0,1,4.51-21c26.32,5.65,55.59-12.9,55.89-13.08a10.74,10.74,0,1,1,11.77,18C802.87,648.57,776.77,665.41,747,665.41Z"/><path d="M638.74,809a10.75,10.75,0,0,1-9-16.62h0c.19-.29,18.79-29.34,13.1-55.9a10.74,10.74,0,1,1,21-4.5c7.59,35.43-15.15,70.68-16.12,72.16A10.75,10.75,0,0,1,638.74,809Z"/><path d="M546.63,476.52a10.75,10.75,0,0,1-10.49-8.5c-7.59-35.43,15.15-70.68,16.12-72.16a10.74,10.74,0,0,1,18,11.75h0c-.18.29-18.78,29.35-13.09,55.91a10.74,10.74,0,0,1-8.26,12.75A10.3,10.3,0,0,1,546.63,476.52Z"/><path d="M401.76,572a10.74,10.74,0,0,1-5.91-19.72c1.48-1,36.71-23.72,72.17-16.12a10.74,10.74,0,0,1-4.5,21c-26.57-5.69-55.62,12.9-55.91,13.1A10.74,10.74,0,0,1,401.76,572Z"/><path class="cls-1" d="M676.84,494.3C655,472.85,576.09,408.16,493,497.09c-86.19,92.27-42.74,176.49-22.59,202.22a8.57,8.57,0,0,0,12.8.76L676.87,506.45A8.56,8.56,0,0,0,676.84,494.3ZM501.71,524.18a33.36,33.36,0,1,1,0,47.18A33.36,33.36,0,0,1,501.71,524.18ZM478.12,642.12a22.24,22.24,0,1,1,31.45,0A22.25,22.25,0,0,1,478.12,642.12Zm109-109a23.83,23.83,0,1,1,33.7,0A23.81,23.81,0,0,1,587.08,533.16Z"/><path class="cls-1" d="M704.66,522.12a8.56,8.56,0,0,0-12.15,0L498.89,715.71a8.56,8.56,0,0,0,.76,12.8c25.73,20.15,110,63.6,202.22-22.59C790.79,622.86,726.11,544,704.66,522.12Zm13.84,59.35a28.59,28.59,0,1,1-40.44,0A28.58,28.58,0,0,1,718.5,581.47Zm-70.76,39.31a17.48,17.48,0,1,1-24.72,0A17.48,17.48,0,0,1,647.74,620.78Zm-91,115.7a33.36,33.36,0,1,1,47.18,0A33.36,33.36,0,0,1,556.75,736.48Zm86.49-23.59a22.24,22.24,0,1,1,31.45,0A22.25,22.25,0,0,1,643.24,712.89Z"/></svg>