<svg id="Camada_1" data-name="Camada 1" xmlns="http://www.w3.org/2000/svg" viewBox="0 0 1200 1200"><defs><style>.cls-1{fill:#de2a42;}</style></defs><path d="M407.91,640.93l-9-9a46.47,46.47,0,0,0,10.84-41.16l3.8-3.81h0l.18-.16c3.08-3.08,3.18-8.42.83-14.07l3-3a4.69,4.69,0,1,0-6.63-6.63l-1.42,1.43c-.69-.82-1.43-1.63-2.22-2.42s-1.6-1.53-2.42-2.22l1.43-1.42a4.69,4.69,0,1,0-6.63-6.63l-3,3c-5.65-2.35-11-2.25-14.07.83l-.16.18h0l-3.81,3.81a46.47,46.47,0,0,0-41.16,10.83l-9-9a3.28,3.28,0,1,0-4.64,4.64l9,9c-15.66,18-15.65,44.62.57,60.85s42.8,16.23,60.85.57l9,9a3.28,3.28,0,1,0,4.63-4.64Z"/><path d="M408,624.28a21.11,21.11,0,0,1-4.44-.45,3.17,3.17,0,0,1,1.33-6.2c7.76,1.67,16.39-3.8,16.48-3.85a3.16,3.16,0,1,1,3.47,5.29C424.51,619.32,416.81,624.28,408,624.28Z"/><path d="M376.12,666.62a3.17,3.17,0,0,1-2.66-4.9h0c.06-.08,5.54-8.65,3.87-16.48a3.17,3.17,0,1,1,6.19-1.33c2.24,10.45-4.47,20.84-4.75,21.28A3.16,3.16,0,0,1,376.12,666.62Z"/><path d="M349,568.59a3.18,3.18,0,0,1-3.1-2.5c-2.23-10.45,4.47-20.84,4.76-21.28a3.17,3.17,0,0,1,5.3,3.47h0c-.06.08-5.54,8.65-3.86,16.48a3.18,3.18,0,0,1-2.44,3.76A3,3,0,0,1,349,568.59Z"/><path d="M306.24,596.74a3.17,3.17,0,0,1-1.74-5.82c.44-.28,10.83-7,21.28-4.75a3.17,3.17,0,0,1-1.33,6.2c-7.83-1.68-16.4,3.8-16.48,3.86A3.22,3.22,0,0,1,306.24,596.74Z"/><path class="cls-1" d="M387.35,573.83c-6.44-6.32-29.71-25.39-54.2.83-25.41,27.2-12.6,52-6.65,59.62a2.52,2.52,0,0,0,3.77.22l57.09-57.08A2.53,2.53,0,0,0,387.35,573.83Zm-51.64,8.81a9.84,9.84,0,1,1,0,13.91A9.84,9.84,0,0,1,335.71,582.64Zm-6.95,34.78a6.55,6.55,0,1,1,9.27,0A6.55,6.55,0,0,1,328.76,617.42Zm32.12-32.13a7,7,0,1,1,9.94,0A7,7,0,0,1,360.88,585.29Z"/><path class="cls-1" d="M395.55,582a2.52,2.52,0,0,0-3.58,0l-57.09,57.09a2.52,2.52,0,0,0,.23,3.77c7.58,5.94,32.41,18.75,59.62-6.66C421,611.74,401.88,588.48,395.55,582Zm4.08,17.5a8.43,8.43,0,1,1-11.92,0A8.43,8.43,0,0,1,399.63,599.54Zm-20.86,11.59a5.15,5.15,0,1,1-7.29,0A5.15,5.15,0,0,1,378.77,611.13Zm-26.83,34.11a9.84,9.84,0,1,1,13.91,0A9.84,9.84,0,0,1,351.94,645.24Zm25.5-7a6.56,6.56,0,1,1,9.28,0A6.55,6.55,0,0,1,377.44,638.28Z"/><path d="M468.63,541.22h17.21V559.8a48.75,48.75,0,0,1,41-21.52c33.52,0,57.53,25.59,57.53,61.61,0,36.46-22.87,62.06-56.17,62.06-24.69,0-38.05-15.86-41.68-22v61.38H468.63Zm57.53,104.42c23.1,0,39.87-18.8,39.87-45.75,0-27.64-17.67-45.3-40.32-45.3-24.46,0-39.87,20.61-39.87,45.3C485.84,628.88,504,645.64,526.16,645.64Z"/><path d="M656.85,538.28c34.65,0,55.94,24.91,55.94,60.25,0,.68,0,3.17-.22,5.43H618.12c.22,26.28,17.89,42.13,42.35,42.13,19.93,0,31-10.42,36.7-18.34l11.77,8.6c-6.57,11.1-22,25.6-48.69,25.6-35.79,0-60.48-25.14-60.48-61.38C599.77,563,625.59,538.28,656.85,538.28Zm37.6,52.32c-1.14-24.46-18.12-36.92-37.6-36.92-19.26,0-36.47,14.72-37.83,36.92Z"/><path d="M736.8,516.54h17.89v24.68h25.82V556.4H754.69v60.7c0,22,6.34,27.18,21.74,27.18,2.27,0,5-.23,5-.23v15.86a85.47,85.47,0,0,1-10.87.68c-23.56,0-33.75-15.4-33.75-41.9V556.4H723V541.22H736.8Z"/><path d="M811.09,498.64a12.35,12.35,0,1,1-12.23,12.23A12.24,12.24,0,0,1,811.09,498.64Zm-8.84,42.58h17.9V659h-17.9Z"/><path d="M852.31,516.54H870.2v24.68H896V556.4H870.2v60.7c0,22,6.34,27.18,21.75,27.18,2.26,0,5-.23,5-.23v15.86a85.47,85.47,0,0,1-10.87.68c-23.56,0-33.75-15.4-33.75-41.9V556.4H838.49V541.22h13.82Z"/></svg>