<svg xmlns="http://www.w3.org/2000/svg" xmlns:xlink="http://www.w3.org/1999/xlink" viewBox="0 0 1920 1920"><defs><style>.cls-1{fill:url(#Gradiente_sem_nome_10);}.cls-2{fill:none;}.cls-3{fill:url(#Gradiente_sem_nome_9);}.cls-4{fill:url(#Gradiente_sem_nome_11);}.cls-5{fill:#777;}.cls-6{fill:url(#Gradiente_sem_nome_13);}.cls-7{fill:#6f6f6f;}.cls-8{fill:url(#Gradiente_sem_nome_14);}</style><linearGradient id="Gradiente_sem_nome_10" x1="18.92" y1="1153.57" x2="377.13" y2="398.47" gradientUnits="userSpaceOnUse"><stop offset="0" stop-color="#fff"/><stop offset="1" stop-color="#969696"/></linearGradient><linearGradient id="Gradiente_sem_nome_9" x1="1061.99" y1="1730.97" x2="1317.85" y2="1191.62" xlink:href="#Gradiente_sem_nome_10"/><linearGradient id="Gradiente_sem_nome_11" x1="402.4" y1="1490.35" x2="849.84" y2="547.17" gradientUnits="userSpaceOnUse"><stop offset="0" stop-color="#fff"/><stop offset="1" stop-color="#7c7c7c"/></linearGradient><linearGradient id="Gradiente_sem_nome_13" x1="1332.97" y1="1376.64" x2="862.81" y2="626.02" gradientUnits="userSpaceOnUse"><stop offset="0" stop-color="#fff"/><stop offset="0.27" stop-color="#c7c7c7"/><stop offset="1" stop-color="#2f2f2f"/></linearGradient><linearGradient id="Gradiente_sem_nome_14" x1="1824.18" y1="1695.42" x2="1529.37" y2="1213.39" xlink:href="#Gradiente_sem_nome_13"/></defs><g id="Camada_10" data-name="Camada 10"><polygon class="cls-1" points="393.98 442.12 381.93 1325.78 2.08 1110.54 14.12 226.26 393.98 442.12"/><line class="cls-2" x1="382.46" y1="1326.09" x2="381.93" y2="1325.78"/><polygon class="cls-3" points="1435.57 1256.82 1426.55 1920 951.5 1650.34 960.68 987.02 1435.57 1256.82"/><polygon class="cls-4" points="870.31 601.41 856.77 1705.9 380.44 1436.94 381.93 1325.78 393.98 442.12 395.47 331.62 870.31 601.41"/><polygon class="cls-5" points="1352.67 318.56 870.31 601.41 395.47 331.62 877.83 48.77 1352.67 318.56"/><polygon class="cls-6" points="1352.67 318.56 1348.14 650.2 1346.64 760.7 960.68 987.02 951.5 1650.34 856.77 1705.9 870.31 601.41 1352.67 318.56"/><polygon class="cls-7" points="1917.92 973.97 1435.57 1256.82 960.68 987.02 1346.64 760.7 1348.14 650.2 1917.92 973.97"/><polygon class="cls-8" points="1917.92 973.97 1908.65 1637.02 1426.55 1920 1435.57 1256.82 1917.92 973.97"/><polygon class="cls-7" points="14.12 226.28 399.99 0 684.43 161.63 395.47 331.62 393.98 442.12 14.12 226.28"/></g></svg>